<?xml version="1.0" encoding="UTF-8" standalone="no"?>
<!DOCTYPE svg PUBLIC "-//W3C//DTD SVG 20010904//EN"
              "http://www.w3.org/TR/2001/REC-SVG-20010904/DTD/svg10.dtd">

<svg xmlns="http://www.w3.org/2000/svg"
     width="10.7083in" height="10.7083in"
     viewBox="0 0 1028 1028">
  <path id="Selection #6"
        fill="white" stroke="none" stroke-width="1"
        d="M 288.00,562.00
           C 280.49,560.49 274.85,558.88 267.00,560.32
             262.74,561.10 258.46,563.38 255.00,565.93
             239.60,577.29 238.63,598.22 247.31,614.00
             259.58,636.28 288.70,640.41 309.00,626.90
             332.75,611.09 335.73,574.97 324.22,551.00
             315.04,531.90 295.65,516.28 281.04,501.00
             264.65,483.86 251.29,462.42 251.00,438.00
             250.75,415.95 255.41,396.52 271.09,380.01
             285.71,364.62 308.81,355.03 330.00,355.00
             330.00,355.00 343.00,355.00 343.00,355.00
             361.56,355.22 380.07,363.92 391.07,379.00
             400.88,392.45 403.80,412.25 398.48,428.00
             393.50,442.76 380.11,453.57 364.00,450.53
             358.11,449.42 345.83,442.92 345.74,436.10
             345.70,433.03 349.86,431.17 352.00,429.47
             356.42,425.98 359.30,422.14 361.56,417.00
             363.63,412.30 365.32,406.17 364.82,401.00
             362.88,380.97 344.12,373.16 327.00,381.33
             302.46,393.03 299.23,429.04 310.37,451.00
             323.89,477.65 363.89,501.25 379.73,533.00
             387.52,548.62 387.19,560.25 387.00,577.00
             386.87,587.76 382.99,602.35 378.24,612.00
             364.00,640.98 340.39,657.56 309.00,663.80
             303.90,664.82 297.15,665.94 292.00,666.00
             267.90,666.28 248.29,665.97 228.00,650.50
             192.99,623.80 188.20,565.32 223.00,536.32
             233.62,527.48 253.24,521.27 267.00,523.44
             279.66,525.43 289.66,533.46 289.99,547.00
             290.16,554.25 289.35,555.30 288.00,562.00 Z
           M 633.00,463.00
           C 633.19,454.23 635.76,444.69 642.30,438.47
             652.86,428.41 675.72,430.09 685.82,440.18
             693.14,447.51 694.11,457.22 694.00,467.00
             693.68,494.33 675.36,517.47 656.91,535.91
             656.91,535.91 636.00,555.00 636.00,555.00
             632.95,557.79 628.62,560.59 628.23,565.00
             628.23,565.00 629.85,579.00 629.85,579.00
             631.35,591.59 633.38,610.32 642.19,619.96
             653.63,632.50 671.69,626.13 684.00,618.31
             687.60,616.02 692.86,612.81 694.83,608.99
             696.05,606.61 697.70,590.77 698.15,587.00
             698.15,587.00 704.08,548.00 704.08,548.00
             709.03,518.09 716.13,482.62 725.67,454.00
             731.09,437.74 737.18,421.54 746.44,407.00
             753.97,395.17 763.69,384.67 777.00,379.46
             784.26,376.62 789.43,376.91 797.00,377.00
             809.46,377.15 820.22,383.87 824.25,396.00
             826.35,402.33 826.07,407.47 826.00,414.00
             825.84,427.25 820.16,444.50 815.69,457.00
             804.73,487.72 789.35,516.77 773.15,545.00
             773.15,545.00 757.95,570.00 757.95,570.00
             755.63,573.66 750.40,581.30 748.99,585.00
             748.03,587.52 746.40,599.88 746.18,603.00
             745.26,615.98 754.29,625.57 767.00,626.67
             782.02,627.97 806.81,613.38 816.91,602.96
             819.80,599.99 823.05,595.52 825.29,592.00
             826.52,590.07 828.10,586.46 830.27,585.64
             836.80,583.17 840.09,592.02 839.94,597.00
             839.67,606.33 830.16,618.99 824.39,626.00
             807.33,646.71 771.27,665.96 744.00,666.00
             744.00,666.00 735.00,666.00 735.00,666.00
             716.68,665.78 698.74,653.15 697.00,634.00
             697.00,634.00 685.00,643.79 685.00,643.79
             674.19,652.30 660.44,661.07 647.00,664.52
             640.25,666.26 635.84,666.08 629.00,666.00
             620.99,665.90 613.32,663.48 607.09,658.32
             603.14,655.05 599.97,650.43 597.43,646.00
             589.20,631.64 589.30,619.07 585.00,605.00
             582.45,611.00 576.88,617.81 572.79,623.00
             572.79,623.00 562.87,635.00 562.87,635.00
             562.87,635.00 554.96,644.00 554.96,644.00
             547.67,651.53 533.37,663.09 523.00,665.47
             520.29,666.09 516.80,666.03 514.00,666.00
             507.26,665.91 502.01,663.87 497.33,658.83
             494.43,655.70 492.67,651.86 491.00,648.00
             482.59,656.00 473.18,661.42 462.00,664.57
             455.38,666.44 450.75,666.03 444.00,666.00
             430.92,665.94 417.21,660.15 410.99,648.00
             409.18,644.46 407.80,638.96 407.29,635.00
             405.96,624.79 411.87,600.98 414.35,590.00
             414.35,590.00 431.81,508.00 431.81,508.00
             431.81,508.00 431.81,504.00 431.81,504.00
             431.30,494.00 423.55,501.78 420.19,501.13
             415.41,500.19 414.64,490.75 415.53,487.00
             417.11,480.39 422.73,476.93 428.00,473.34
             440.13,465.10 466.11,453.55 479.90,463.70
             488.91,470.34 485.40,482.03 483.42,491.00
             483.42,491.00 480.88,503.00 480.88,503.00
             480.88,503.00 466.58,570.00 466.58,570.00
             466.58,570.00 459.01,609.00 459.01,609.00
             458.79,618.65 462.86,631.08 475.00,625.17
             487.37,619.14 487.01,609.88 491.64,604.44
             498.18,596.73 511.50,594.50 521.00,596.68
             524.86,597.57 528.38,599.44 532.00,601.00
             528.98,613.88 526.24,616.64 525.00,632.00
             542.66,623.39 557.86,605.74 569.14,590.00
             571.40,586.85 580.27,574.52 580.93,571.58
             581.49,569.06 580.28,561.93 579.95,559.00
             579.95,559.00 576.42,530.00 576.42,530.00
             575.37,522.29 574.39,503.71 570.35,498.02
             563.49,488.35 553.89,490.64 545.00,495.68
             542.64,497.01 537.40,501.06 535.10,501.18
             529.50,501.46 528.73,490.73 529.79,487.00
             531.82,479.84 539.11,474.57 545.00,470.44
             551.13,466.13 559.70,461.67 567.00,459.90
             578.79,457.04 595.58,459.20 604.96,467.33
             617.42,478.13 620.29,502.40 622.15,518.00
             622.15,518.00 624.00,537.00 624.00,537.00
             634.72,524.61 647.24,507.66 652.33,492.00
             655.67,481.73 654.67,471.22 644.00,465.84
             640.60,464.12 636.71,463.68 633.00,463.00 Z
           M 468.00,381.53
           C 471.48,380.96 473.52,380.99 477.00,381.00
             498.95,381.10 508.27,402.91 498.35,421.00
             491.89,432.80 481.80,437.15 469.00,437.00
             453.75,436.82 444.43,426.00 445.04,411.00
             445.59,397.27 454.86,385.41 468.00,381.53 Z
           M 756.00,543.00
           C 756.00,543.00 771.69,510.00 771.69,510.00
             782.05,487.37 790.60,463.92 797.42,440.00
             799.33,433.29 802.61,420.73 802.90,414.00
             803.04,410.65 802.52,406.12 798.87,404.78
             794.71,403.25 791.21,406.94 789.10,410.02
             785.00,415.99 781.32,426.04 779.00,433.00
             771.88,454.34 763.73,490.56 759.92,513.00
             759.92,513.00 756.59,532.00 756.59,532.00
             755.96,535.72 754.79,539.37 756.00,543.00 Z" />
</svg>
