<svg id="e4MkNw5SPpl1" xmlns="http://www.w3.org/2000/svg" xmlns:xlink="http://www.w3.org/1999/xlink" viewBox="0 0 1200 95" shape-rendering="geometricPrecision" text-rendering="geometricPrecision" style="background-color:#1060d3"><path d="M0,329.999999c30.407302,0,56.799189-25.981019,70-44.999999c16.549277-23.84326,34.80125-50,80-50c45.587085,0,66.295979,30.023215,80,50c17.371889,25.323552,39.981033,44.999999,70,44.999999" transform="translate(0-234.999999)" fill="#0e51af" stroke-width="0.6"/><path d="M0,329.999999c30.407302,0,56.799189-25.981019,70-44.999999c16.549277-23.84326,34.80125-50,80-50c45.587085,0,66.295979,30.023215,80,50c17.371889,25.323552,39.981033,44.999999,70,44.999999" transform="translate(600-234.999999)" fill="#0e51af" stroke-width="0.6"/><path d="M0,329.999999c30.407302,0,56.799189-25.981019,70-44.999999c16.549277-23.84326,34.80125-50,80-50c45.587085,0,66.295979,30.023215,80,50c17.371889,25.323552,39.981033,44.999999,70,44.999999" transform="translate(900-234.999999)" fill="#0e51af" stroke-width="0.6"/><path d="M0,329.999999c30.407302,0,56.799189-25.981019,70-44.999999c16.549277-23.84326,34.80125-50,80-50c45.587085,0,66.295979,30.023215,80,50c17.371889,25.323552,39.981033,44.999999,70,44.999999" transform="translate(300-234.999999)" fill="#0e51af" stroke-width="0.6"/></svg>
